<?xml version="1.0" encoding="utf-8"?>
<!-- Generator: Adobe Illustrator 19.0.0, SVG Export Plug-In . SVG Version: 6.00 Build 0)  -->
<svg version="1.1" id="Layer_1" xmlns="http://www.w3.org/2000/svg" xmlns:xlink="http://www.w3.org/1999/xlink" x="0px" y="0px"
	 viewBox="-543 745 512 512" style="enable-background:new -543 745 512 512;" xml:space="preserve">
<path d="M-295.2,905.6c11.9,0,23.8-4.5,32.9-13.6c8.8-8.8,13.6-20.5,13.6-32.9s-4.8-24.1-13.6-32.9c-18.1-18.1-47.7-18.1-65.8,0
	c-8.8,8.8-13.6,20.5-13.6,32.9s4.8,24.1,13.6,32.9C-319,901.1-307.1,905.6-295.2,905.6z M-306.9,847.5c3.2-3.2,7.5-4.8,11.7-4.8
	c4.2,0,8.5,1.6,11.7,4.8c3.1,3.1,4.8,7.3,4.8,11.7s-1.7,8.5-4.8,11.7c-6.5,6.4-17,6.4-23.4,0c-3.1-3.1-4.8-7.3-4.8-11.7
	S-310,850.6-306.9,847.5z"/>
<path d="M-240.4,924.8c2.9,2.9,6.8,4.4,10.6,4.4c3.8,0,7.7-1.5,10.6-4.4c17.6-17.5,27.2-40.8,27.2-65.6s-9.7-48.1-27.2-65.6
	c-5.9-5.9-15.4-5.8-21.2,0s-5.8,15.4,0,21.2c11.9,11.9,18.4,27.6,18.4,44.4c0,16.8-6.5,32.5-18.4,44.4
	C-246.2,909.4-246.2,918.9-240.4,924.8z"/>
<path d="M-371.3,924.8c2.9,2.9,6.8,4.4,10.6,4.4c3.8,0,7.7-1.5,10.6-4.4c5.9-5.9,5.8-15.4,0-21.2c-11.9-11.9-18.4-27.6-18.4-44.4
	c0-16.8,6.5-32.5,18.4-44.4c5.9-5.9,5.9-15.3,0-21.2c-5.9-5.9-15.4-5.9-21.2,0c-17.6,17.5-27.2,40.8-27.2,65.6
	C-398.5,884-388.8,907.3-371.3,924.8z"/>
<path d="M-169.7,859.2c0,33.4-13.1,64.9-36.8,88.5c-5.9,5.9-5.9,15.4,0,21.2c2.9,2.9,6.8,4.4,10.6,4.4c3.8,0,7.7-1.5,10.6-4.4
	c29.4-29.3,45.6-68.3,45.6-109.8c0-41.5-16.2-80.5-45.6-109.8c-5.9-5.9-15.4-5.8-21.2,0c-5.9,5.9-5.8,15.4,0,21.2
	C-182.7,794.3-169.7,825.7-169.7,859.2z"/>
<path d="M-394.6,973.3c3.8,0,7.7-1.5,10.6-4.4c5.9-5.9,5.8-15.4,0-21.2c-23.7-23.7-36.8-55.1-36.8-88.6c0-33.4,13.1-64.9,36.8-88.5
	c5.9-5.9,5.9-15.4,0-21.2c-5.9-5.9-15.4-5.9-21.2,0c-29.4,29.3-45.6,68.3-45.6,109.8c0,41.5,16.2,80.5,45.6,109.8
	C-402.3,971.9-398.4,973.3-394.6,973.3z"/>
</svg>
